<svg width="8982" height="2311" viewBox="0 0 8982 2311" fill="none" xmlns="http://www.w3.org/2000/svg">
<rect x="328" y="248" width="1815" height="1815" rx="500" fill="#155DFC"/>
<path d="M1889.08 1251.37C1852.58 1366.93 1785.73 1471.77 1694.11 1554.2C1636.47 1605.89 1570.63 1647.63 1499.29 1677.71C1488.67 1682.08 1475 1687.81 1464.12 1690.97C1464.99 1762.63 1463.04 1835.63 1464.25 1907C1424.17 1888.81 1384.23 1870.3 1344.44 1851.46L1129.32 1751.62L993.852 1688.64C964.297 1674.91 931.92 1660.83 903.623 1644.97C760.706 1565.81 650.699 1438.28 593.364 1285.3C589.184 1274.26 585.311 1263.11 581.746 1251.86C567.377 1206.54 604.092 1163.7 651.635 1163.66C673.882 1163.64 696.156 1163.56 718.376 1163.48L720.824 1163.47C754.877 1163.34 784.144 1186.14 796.394 1217.91C810.553 1254.64 828.015 1286.84 854.399 1323.51C932.736 1427.33 1040.8 1494.21 1170.21 1512.45C1293.91 1529.64 1419.39 1497.05 1519.09 1421.84C1588.89 1369.44 1642.11 1299.15 1673.81 1219.38C1686.65 1187.04 1716.44 1163.23 1751.23 1163.23H1819.82C1867.21 1163.23 1903.36 1206.18 1889.08 1251.37Z" fill="white"/>
<path d="M797.176 914.868C812.906 875.37 834.053 837.848 860.315 803.449C935.566 704.502 1046.87 639.305 1169.98 622.062C1294.43 604.487 1420.74 637.353 1520.84 713.355C1588.93 765.221 1644.12 837.023 1675.41 917.307C1687.36 947.959 1714.28 971.065 1747.17 970.78C1757.94 970.687 1768.25 970.548 1776.85 970.543C1790.44 970.535 1803.63 969.598 1816.67 968.282C1863.39 963.566 1898.64 917.771 1884.6 872.97C1839.88 730.309 1750.28 610.992 1623.43 523.932C1523.32 453.755 1391.06 409.526 1269.6 404.861C1254.8 404.293 1222.93 403.376 1208.46 404.623C1020.37 413.82 853.43 490.482 726.212 630.554C660.014 704.144 611.193 790.387 581.964 882.979C567.673 928.251 603.956 971.239 651.429 971.107L720.033 970.915C754.703 970.818 784.348 947.078 797.176 914.868Z" fill="white"/>
<path d="M1004.02 975.634C1067.47 956.847 1131.44 981.404 1146.96 1030.5C1162.48 1079.6 1123.69 1134.68 1060.27 1153.56C996.772 1172.47 932.651 1147.93 917.107 1098.76C901.563 1049.59 940.491 994.448 1004.02 975.634Z" fill="white"/>
<path d="M1456.08 972.959C1520.58 987.282 1565.02 1039.8 1555.45 1090.38C1545.88 1140.95 1485.9 1170.5 1421.36 1156.44C1356.58 1142.33 1311.78 1089.65 1321.38 1038.89C1330.99 988.129 1391.36 958.584 1456.08 972.959Z" fill="white"/>
<path d="M2680.24 316.225H2859.16V1198.76H3239.53V1334.08H2680.24V316.225ZM3545.7 1340.09C3492.58 1340.09 3451.98 1324.55 3423.92 1293.48C3395.85 1261.41 3381.82 1220.31 3381.82 1170.2V585.346H3553.22V1155.16C3553.22 1178.22 3556.73 1193.75 3563.74 1201.77C3570.76 1209.79 3581.28 1213.8 3595.31 1213.8C3599.32 1213.8 3603.33 1213.8 3607.34 1213.8C3612.35 1213.8 3616.86 1213.3 3620.87 1212.29C3624.88 1212.29 3629.39 1211.79 3634.41 1210.79L3652.45 1319.04C3645.43 1323.05 3636.41 1326.56 3625.38 1329.56C3616.36 1332.57 3604.84 1335.08 3590.8 1337.08C3577.77 1339.09 3562.74 1340.09 3545.7 1340.09ZM3470.53 251.575C3502.6 251.575 3527.16 261.097 3544.2 280.141C3561.24 299.185 3569.76 323.742 3569.76 353.811C3569.76 383.881 3560.74 408.939 3542.69 428.985C3525.65 449.031 3500.1 459.055 3466.02 459.055C3433.94 459.055 3408.88 449.533 3390.84 430.489C3373.8 410.442 3365.28 386.387 3365.28 358.322C3365.28 327.25 3373.8 301.691 3390.84 281.645C3408.88 261.599 3435.45 251.575 3470.53 251.575ZM4288.59 1334.08V848.454C4288.59 806.357 4281.07 772.779 4266.04 747.721C4251 721.661 4225.44 708.631 4189.36 708.631C4166.31 708.631 4143.76 714.645 4121.7 726.673C4100.66 737.698 4081.61 754.236 4064.57 776.287C4047.53 798.338 4033.5 825.401 4022.48 857.475C4012.45 888.546 4007.44 923.627 4007.44 962.718V1334.08H3836.04V955.2C3836.04 895.061 3832.04 844.946 3824.02 804.853C3816 763.758 3807.48 730.682 3798.46 705.624C3787.43 676.557 3775.4 653.002 3762.37 634.961L3897.69 580.836C3907.71 591.861 3917.73 605.392 3927.76 621.429C3935.77 635.462 3943.79 653.002 3951.81 674.051C3959.83 694.097 3966.35 717.151 3971.36 743.211C3997.42 683.072 4035 639.972 4084.12 613.912C4133.23 586.85 4184.85 573.318 4238.98 573.318C4316.15 573.318 4371.78 596.873 4405.86 643.982C4440.94 690.088 4458.48 752.733 4458.48 831.916V1334.08H4288.59ZM4995.35 567.304C5110.61 567.304 5194.31 601.383 5246.43 669.541C5298.55 737.698 5324.61 831.414 5324.61 950.69C5324.61 1006.82 5317.59 1059.44 5303.56 1108.55C5289.53 1156.67 5267.98 1198.76 5238.91 1234.85C5210.85 1269.93 5175.26 1297.99 5132.16 1319.04C5089.06 1339.09 5038.95 1349.11 4981.82 1349.11C4924.69 1349.11 4875.07 1340.59 4832.97 1323.55C4791.88 1305.51 4757.8 1279.95 4730.74 1246.87C4703.67 1213.8 4683.63 1173.7 4670.6 1126.6C4658.57 1079.49 4652.56 1026.36 4652.56 967.228C4652.56 910.096 4659.57 857.475 4673.61 809.363C4687.64 760.25 4708.69 718.153 4736.75 683.072C4765.82 646.989 4801.9 618.924 4845 598.877C4888.1 577.829 4938.22 567.304 4995.35 567.304ZM4980.31 693.596C4951.25 693.596 4927.19 700.111 4908.15 713.141C4890.11 726.171 4875.57 744.714 4864.55 768.77C4854.52 791.823 4847.51 819.387 4843.5 851.461C4839.49 882.532 4837.48 916.11 4837.48 952.193C4837.48 989.279 4839.49 1024.36 4843.5 1057.44C4848.51 1090.51 4857.03 1119.58 4869.06 1144.64C4881.08 1168.69 4897.12 1187.74 4917.17 1201.77C4938.22 1215.8 4964.78 1222.82 4996.85 1222.82C5025.92 1222.82 5049.47 1216.3 5067.52 1203.27C5086.56 1190.24 5101.09 1172.2 5111.12 1149.15C5122.14 1125.09 5129.66 1097.53 5133.67 1066.46C5137.68 1035.39 5139.68 1001.81 5139.68 965.725C5139.68 928.639 5137.18 893.558 5132.16 860.481C5128.16 827.405 5120.14 798.338 5108.11 773.28C5096.08 748.222 5079.54 728.677 5058.49 714.645C5038.45 700.612 5012.39 693.596 4980.31 693.596ZM6091.17 520.697C6067.11 494.637 6041.55 475.092 6014.49 462.061C5988.43 448.029 5957.86 441.013 5922.78 441.013C5879.68 441.013 5843.09 451.036 5813.02 471.082C5783.96 490.126 5760.4 517.189 5742.36 552.27C5724.32 586.348 5711.29 626.441 5703.27 672.548C5695.25 718.654 5691.24 768.269 5691.24 821.391C5691.24 874.514 5694.75 924.128 5701.77 970.235C5709.79 1016.34 5722.82 1056.94 5740.86 1092.02C5759.9 1127.1 5784.96 1154.66 5816.03 1174.71C5848.1 1194.75 5888.2 1204.78 5936.31 1204.78C5959.36 1204.78 5981.41 1202.77 6002.46 1198.76C6023.51 1194.75 6042.55 1190.74 6059.59 1186.73C6077.63 1181.72 6092.17 1177.21 6103.19 1173.2C6115.22 1169.19 6122.74 1166.69 6125.75 1165.69L6167.84 1291.98L6148.3 1299.5C6135.27 1304.51 6116.72 1310.52 6092.67 1317.54C6069.62 1323.55 6041.55 1329.06 6008.47 1334.08C5976.4 1340.09 5940.82 1343.1 5901.73 1343.1C5767.42 1343.1 5666.18 1300.5 5598.03 1215.3C5530.87 1129.1 5497.29 1003.31 5497.29 837.929C5497.29 758.747 5506.32 686.58 5524.36 621.429C5542.4 555.277 5569.46 498.646 5605.54 451.537C5642.63 404.428 5688.74 367.844 5743.86 341.784C5799.99 315.723 5865.64 302.693 5940.82 302.693C6000.96 302.693 6050.07 313.719 6088.16 335.77C6127.25 357.821 6158.82 382.879 6182.88 410.943L6091.17 520.697ZM6532.73 681.568C6561.79 643.48 6596.37 615.917 6636.47 598.877C6677.56 581.838 6720.66 573.318 6765.76 573.318C6842.94 573.318 6898.57 596.873 6932.65 643.982C6967.73 690.088 6985.27 752.733 6985.27 831.916V1334.08H6813.88V843.943C6813.88 801.846 6806.36 768.77 6791.32 744.714C6776.29 719.656 6750.73 707.127 6714.65 707.127C6693.6 707.127 6672.05 712.64 6650 723.666C6628.95 734.691 6609.4 750.728 6591.36 771.777C6574.32 791.823 6560.29 815.879 6549.26 843.943C6538.24 872.008 6532.73 903.08 6532.73 937.159V1334.08H6361.33V274.127L6532.73 244.058V681.568ZM7827.66 971.738C7827.66 1031.88 7831.17 1082.49 7838.18 1123.59C7846.2 1163.68 7854.72 1196.26 7863.74 1221.31C7874.77 1251.38 7886.8 1274.94 7899.83 1291.98L7766.02 1346.1C7752.99 1333.07 7740.96 1317.54 7729.93 1299.5C7720.91 1283.46 7712.39 1264.41 7704.38 1242.36C7696.36 1219.31 7691.35 1192.25 7689.34 1161.18C7672.3 1221.31 7644.74 1266.92 7606.65 1297.99C7569.56 1328.06 7518.95 1343.1 7454.8 1343.1C7407.69 1343.1 7366.6 1334.58 7331.51 1317.54C7297.44 1299.5 7268.87 1274.44 7245.82 1242.36C7222.76 1209.29 7205.72 1169.7 7194.7 1123.59C7183.67 1077.48 7178.16 1026.36 7178.16 970.235C7178.16 913.103 7186.68 860.482 7203.72 812.37C7221.76 763.257 7246.32 721.16 7277.39 686.079C7309.46 650.998 7347.55 623.434 7391.65 603.388C7435.75 583.341 7484.37 573.318 7537.49 573.318C7567.56 573.318 7598.63 575.824 7630.71 580.836C7663.78 584.845 7694.35 589.355 7722.42 594.367C7750.48 599.379 7774.04 604.39 7793.08 609.402C7813.13 613.411 7824.65 615.917 7827.66 616.919V971.738ZM7483.36 1222.82C7508.42 1222.82 7531.48 1214.3 7552.52 1197.26C7573.57 1180.22 7591.61 1158.17 7606.65 1131.11C7622.69 1103.04 7634.71 1071.47 7642.73 1036.39C7651.75 1000.3 7656.26 963.72 7656.26 926.634V710.134C7646.24 707.127 7631.21 703.619 7611.16 699.61C7591.11 695.601 7573.07 693.596 7557.04 693.596C7518.95 693.596 7487.37 700.111 7462.32 713.141C7438.26 726.171 7418.72 744.213 7403.68 767.266C7388.65 790.32 7378.12 817.883 7372.11 849.957C7366.09 882.031 7363.09 917.112 7363.09 955.2C7363.09 990.281 7364.09 1023.86 7366.09 1055.93C7368.1 1088.01 7373.11 1116.57 7381.13 1141.63C7390.15 1166.69 7402.68 1186.73 7418.72 1201.77C7434.75 1215.8 7456.3 1222.82 7483.36 1222.82ZM7996.63 585.346H8131.95L8162.02 409.44L8303.34 377.867V585.346H8488.27L8467.22 707.127H8303.34V1152.16C8303.34 1178.22 8310.36 1195.25 8324.39 1203.27C8338.42 1210.29 8353.96 1213.8 8371 1213.8C8385.03 1213.8 8399.06 1212.8 8413.1 1210.79C8427.13 1208.79 8439.66 1206.28 8450.68 1203.27C8463.71 1200.27 8476.24 1196.76 8488.27 1192.75L8516.84 1305.51L8503.3 1310.02C8494.28 1314.03 8480.75 1318.54 8462.71 1323.55C8445.67 1327.56 8425.12 1331.07 8401.07 1334.08C8378.01 1338.08 8352.46 1340.09 8324.39 1340.09C8296.33 1340.09 8270.27 1337.08 8246.21 1331.07C8223.16 1325.05 8203.11 1315.53 8186.07 1302.5C8169.03 1288.47 8155.5 1270.93 8145.48 1249.88C8136.46 1228.83 8131.95 1202.77 8131.95 1171.7V707.127H7996.63V585.346Z" fill="#0F172A"/>
<path d="M2698.27 1592.09V1543.61H3036.76V1592.09H2894.84V1994.93H2840.19V1592.09H2698.27ZM3167.61 2002.86C3146.16 2002.86 3126.69 1998.82 3109.21 1990.74C3091.73 1982.51 3077.84 1970.68 3067.56 1955.26C3057.27 1939.69 3052.13 1920.88 3052.13 1898.84C3052.13 1879.45 3055.95 1863.73 3063.59 1851.68C3071.23 1839.49 3081.44 1829.94 3094.22 1823.04C3107 1816.13 3121.11 1810.99 3136.53 1807.61C3152.11 1804.08 3167.75 1801.29 3183.47 1799.24C3204.04 1796.59 3220.72 1794.61 3233.5 1793.29C3246.43 1791.82 3255.83 1789.39 3261.71 1786.01C3267.73 1782.63 3270.74 1776.76 3270.74 1768.38V1766.62C3270.74 1744.88 3264.79 1727.98 3252.89 1715.94C3241.14 1703.89 3223.29 1697.87 3199.34 1697.87C3174.51 1697.87 3155.05 1703.3 3140.94 1714.17C3126.84 1725.04 3116.92 1736.65 3111.19 1748.99L3061.83 1731.36C3070.64 1710.79 3082.4 1694.78 3097.09 1683.32C3111.93 1671.71 3128.09 1663.63 3145.57 1659.08C3163.2 1654.38 3180.54 1652.03 3197.58 1652.03C3208.45 1652.03 3220.94 1653.35 3235.04 1655.99C3249.29 1658.49 3263.03 1663.71 3276.25 1671.64C3289.62 1679.57 3300.71 1691.55 3309.53 1707.56C3318.34 1723.58 3322.75 1745.02 3322.75 1771.91V1994.93H3270.74V1949.09H3268.1C3264.57 1956.43 3258.69 1964.29 3250.47 1972.67C3242.24 1981.04 3231.29 1988.17 3217.63 1994.04C3203.97 1999.92 3187.29 2002.86 3167.61 2002.86ZM3175.54 1956.14C3196.11 1956.14 3213.44 1952.1 3227.55 1944.02C3241.8 1935.94 3252.52 1925.51 3259.72 1912.73C3267.07 1899.95 3270.74 1886.5 3270.74 1872.4V1824.8C3268.54 1827.44 3263.69 1829.87 3256.2 1832.07C3248.85 1834.13 3240.33 1835.96 3230.63 1837.58C3221.08 1839.05 3211.75 1840.37 3202.65 1841.55C3193.68 1842.58 3186.41 1843.46 3180.83 1844.19C3167.31 1845.95 3154.68 1848.82 3142.93 1852.79C3131.32 1856.61 3121.92 1862.41 3114.72 1870.2C3107.67 1877.84 3104.14 1888.27 3104.14 1901.49C3104.14 1919.56 3110.82 1933.22 3124.19 1942.48C3137.71 1951.59 3154.83 1956.14 3175.54 1956.14ZM3469.68 1543.61V1994.93H3417.67V1543.61H3469.68ZM3613.42 1871.52L3612.54 1807.17H3623.11L3771.2 1656.44H3835.55L3677.77 1815.98H3673.36L3613.42 1871.52ZM3564.94 1994.93V1543.61H3616.94V1994.93H3564.94ZM3780.02 1994.93L3647.8 1827.44L3684.82 1791.3L3846.13 1994.93H3780.02ZM3940.39 1998.45C3929.52 1998.45 3920.19 1994.56 3912.41 1986.77C3904.62 1978.99 3900.73 1969.66 3900.73 1958.78C3900.73 1947.91 3904.62 1938.58 3912.41 1930.8C3920.19 1923.01 3929.52 1919.12 3940.39 1919.12C3951.26 1919.12 3960.59 1923.01 3968.38 1930.8C3976.17 1938.58 3980.06 1947.91 3980.06 1958.78C3980.06 1965.98 3978.22 1972.59 3974.55 1978.62C3971.02 1984.64 3966.25 1989.49 3960.23 1993.16C3954.35 1996.69 3947.74 1998.45 3940.39 1998.45ZM4618.14 1684.64H4563.49C4560.26 1668.92 4554.6 1655.11 4546.52 1643.21C4538.59 1631.31 4528.89 1621.32 4517.44 1613.24C4506.12 1605.02 4493.56 1598.85 4479.75 1594.73C4465.94 1590.62 4451.54 1588.56 4436.56 1588.56C4409.23 1588.56 4384.48 1595.47 4362.29 1609.28C4340.26 1623.09 4322.7 1643.43 4309.63 1670.32C4296.7 1697.2 4290.23 1730.19 4290.23 1769.27C4290.23 1808.34 4296.7 1841.33 4309.63 1868.21C4322.7 1895.1 4340.26 1915.45 4362.29 1929.26C4384.48 1943.07 4409.23 1949.97 4436.56 1949.97C4451.54 1949.97 4465.94 1947.91 4479.75 1943.8C4493.56 1939.69 4506.12 1933.59 4517.44 1925.51C4528.89 1917.28 4538.59 1907.22 4546.52 1895.32C4554.6 1883.27 4560.26 1869.46 4563.49 1853.89H4618.14C4614.03 1876.95 4606.54 1897.6 4595.67 1915.81C4584.8 1934.03 4571.28 1949.53 4555.12 1962.31C4538.96 1974.95 4520.81 1984.57 4500.69 1991.18C4480.71 1997.79 4459.33 2001.1 4436.56 2001.1C4398.07 2001.1 4363.84 1991.69 4333.87 1972.89C4303.9 1954.08 4280.32 1927.35 4263.13 1892.67C4245.94 1858 4237.34 1816.87 4237.34 1769.27C4237.34 1721.67 4245.94 1680.53 4263.13 1645.86C4280.32 1611.19 4303.9 1584.45 4333.87 1565.64C4363.84 1546.84 4398.07 1537.44 4436.56 1537.44C4459.33 1537.44 4480.71 1540.74 4500.69 1547.35C4520.81 1553.96 4538.96 1563.66 4555.12 1576.44C4571.28 1589.08 4584.8 1604.5 4595.67 1622.72C4606.54 1640.79 4614.03 1661.43 4618.14 1684.64ZM4836.92 2001.98C4806.36 2001.98 4779.55 1994.71 4756.48 1980.16C4733.56 1965.62 4715.64 1945.27 4702.71 1919.12C4689.93 1892.97 4683.54 1862.41 4683.54 1827.44C4683.54 1792.18 4689.93 1761.41 4702.71 1735.11C4715.64 1708.81 4733.56 1688.39 4756.48 1673.85C4779.55 1659.3 4806.36 1652.03 4836.92 1652.03C4867.48 1652.03 4894.21 1659.3 4917.13 1673.85C4940.2 1688.39 4958.12 1708.81 4970.9 1735.11C4983.83 1761.41 4990.3 1792.18 4990.3 1827.44C4990.3 1862.41 4983.83 1892.97 4970.9 1919.12C4958.12 1945.27 4940.2 1965.62 4917.13 1980.16C4894.21 1994.71 4867.48 2001.98 4836.92 2001.98ZM4836.92 1955.26C4860.13 1955.26 4879.23 1949.31 4894.21 1937.41C4909.2 1925.51 4920.29 1909.86 4927.49 1890.47C4934.69 1871.08 4938.29 1850.07 4938.29 1827.44C4938.29 1804.82 4934.69 1783.74 4927.49 1764.2C4920.29 1744.66 4909.2 1728.86 4894.21 1716.82C4879.23 1704.77 4860.13 1698.75 4836.92 1698.75C4813.71 1698.75 4794.61 1704.77 4779.62 1716.82C4764.64 1728.86 4753.54 1744.66 4746.35 1764.2C4739.15 1783.74 4735.55 1804.82 4735.55 1827.44C4735.55 1850.07 4739.15 1871.08 4746.35 1890.47C4753.54 1909.86 4764.64 1925.51 4779.62 1937.41C4794.61 1949.31 4813.71 1955.26 4836.92 1955.26ZM5121.69 1791.3V1994.93H5069.69V1656.44H5119.93V1709.32H5124.34C5132.27 1692.14 5144.32 1678.33 5160.48 1667.9C5176.64 1657.32 5197.5 1652.03 5223.06 1652.03C5245.98 1652.03 5266.04 1656.73 5283.22 1666.13C5300.41 1675.39 5313.78 1689.49 5323.33 1708.44C5332.88 1727.25 5337.66 1751.05 5337.66 1779.84V1994.93H5285.65V1783.37C5285.65 1756.78 5278.74 1736.06 5264.93 1721.22C5251.12 1706.24 5232.17 1698.75 5208.08 1698.75C5191.48 1698.75 5176.64 1702.35 5163.56 1709.55C5150.63 1716.74 5140.42 1727.25 5132.93 1741.06C5125.44 1754.87 5121.69 1771.62 5121.69 1791.3ZM5697.36 1656.44L5572.19 1994.93H5519.3L5394.13 1656.44H5450.54L5543.98 1926.17H5547.5L5640.94 1656.44H5697.36ZM5895.8 2001.98C5863.19 2001.98 5835.05 1994.78 5811.4 1980.38C5787.89 1965.84 5769.75 1945.56 5756.97 1919.56C5744.33 1893.41 5738.02 1863 5738.02 1828.33C5738.02 1793.65 5744.33 1763.1 5756.97 1736.65C5769.75 1710.06 5787.53 1689.34 5810.3 1674.51C5833.22 1659.52 5859.95 1652.03 5890.51 1652.03C5908.14 1652.03 5925.55 1654.97 5942.74 1660.84C5959.93 1666.72 5975.58 1676.27 5989.68 1689.49C6003.78 1702.57 6015.02 1719.9 6023.4 1741.5C6031.77 1763.1 6035.96 1789.69 6035.96 1821.27V1843.31H5775.04V1798.35H5983.07C5983.07 1779.26 5979.25 1762.21 5971.61 1747.23C5964.12 1732.24 5953.39 1720.42 5939.43 1711.75C5925.62 1703.08 5909.32 1698.75 5890.51 1698.75C5869.8 1698.75 5851.87 1703.89 5836.74 1714.17C5821.76 1724.31 5810.22 1737.53 5802.14 1753.84C5794.06 1770.15 5790.02 1787.63 5790.02 1806.29V1836.26C5790.02 1861.82 5794.43 1883.49 5803.25 1901.27C5812.21 1918.9 5824.62 1932.34 5840.49 1941.6C5856.35 1950.7 5874.79 1955.26 5895.8 1955.26C5909.46 1955.26 5921.81 1953.35 5932.82 1949.53C5943.99 1945.56 5953.61 1939.69 5961.69 1931.9C5969.77 1923.97 5976.02 1914.12 5980.42 1902.37L6030.67 1916.47C6025.38 1933.52 6016.49 1948.5 6004 1961.43C5991.52 1974.21 5976.09 1984.2 5957.73 1991.4C5939.36 1998.45 5918.72 2001.98 5895.8 2001.98ZM6115.07 1994.93V1656.44H6165.32V1707.56H6168.84C6175.01 1690.81 6186.18 1677.22 6202.34 1666.79C6218.5 1656.36 6236.72 1651.15 6256.99 1651.15C6260.81 1651.15 6265.58 1651.22 6271.31 1651.37C6277.04 1651.51 6281.38 1651.73 6284.32 1652.03V1704.92C6282.55 1704.48 6278.51 1703.82 6272.2 1702.93C6266.02 1701.91 6259.49 1701.39 6252.58 1701.39C6236.13 1701.39 6221.44 1704.84 6208.51 1711.75C6195.73 1718.51 6185.59 1727.91 6178.1 1739.96C6170.75 1751.86 6167.08 1765.45 6167.08 1780.73V1994.93H6115.07ZM6514.38 1656.44V1700.51H6338.97V1656.44H6514.38ZM6390.09 1575.34H6442.1V1897.96C6442.1 1912.65 6444.23 1923.67 6448.49 1931.02C6452.9 1938.22 6458.48 1943.07 6465.24 1945.56C6472.15 1947.91 6479.42 1949.09 6487.06 1949.09C6492.79 1949.09 6497.49 1948.79 6501.16 1948.21C6504.83 1947.47 6507.77 1946.88 6509.98 1946.44L6520.55 1993.16C6517.03 1994.49 6512.11 1995.81 6505.79 1997.13C6499.47 1998.6 6491.46 1999.33 6481.77 1999.33C6467.08 1999.33 6452.68 1996.17 6438.58 1989.86C6424.62 1983.54 6413.01 1973.92 6403.76 1960.99C6394.65 1948.06 6390.09 1931.75 6390.09 1912.07V1575.34ZM6630.52 1998.45C6619.65 1998.45 6610.32 1994.56 6602.53 1986.77C6594.75 1978.99 6590.85 1969.66 6590.85 1958.78C6590.85 1947.91 6594.75 1938.58 6602.53 1930.8C6610.32 1923.01 6619.65 1919.12 6630.52 1919.12C6641.39 1919.12 6650.72 1923.01 6658.51 1930.8C6666.29 1938.58 6670.19 1947.91 6670.19 1958.78C6670.19 1965.98 6668.35 1972.59 6664.68 1978.62C6661.15 1984.64 6656.38 1989.49 6650.35 1993.16C6644.48 1996.69 6637.86 1998.45 6630.52 1998.45ZM7253.62 1684.64C7248.77 1669.8 7242.38 1656.51 7234.45 1644.76C7226.66 1632.86 7217.33 1622.72 7206.46 1614.34C7195.73 1605.97 7183.54 1599.58 7169.88 1595.17C7156.21 1590.77 7141.23 1588.56 7124.92 1588.56C7098.18 1588.56 7073.87 1595.47 7051.98 1609.28C7030.09 1623.09 7012.68 1643.43 6999.75 1670.32C6986.82 1697.2 6980.36 1730.19 6980.36 1769.27C6980.36 1808.34 6986.9 1841.33 6999.97 1868.21C7013.05 1895.1 7030.75 1915.45 7053.08 1929.26C7075.41 1943.07 7100.53 1949.97 7128.45 1949.97C7154.3 1949.97 7177.08 1944.46 7196.76 1933.44C7216.6 1922.28 7232.02 1906.56 7243.04 1886.28C7254.21 1865.86 7259.79 1841.84 7259.79 1814.22L7276.54 1817.75H7140.79V1769.27H7312.68V1817.75C7312.68 1854.92 7304.74 1887.24 7288.88 1914.71C7273.16 1942.18 7251.41 1963.49 7223.65 1978.62C7196.03 1993.6 7164.29 2001.1 7128.45 2001.1C7088.49 2001.1 7053.37 1991.69 7023.11 1972.89C6992.99 1954.08 6969.49 1927.35 6952.59 1892.67C6935.84 1858 6927.47 1816.87 6927.47 1769.27C6927.47 1733.57 6932.24 1701.46 6941.79 1672.96C6951.49 1644.32 6965.15 1619.93 6982.78 1599.8C7000.41 1579.67 7021.27 1564.25 7045.37 1553.52C7069.46 1542.8 7095.98 1537.44 7124.92 1537.44C7148.72 1537.44 7170.91 1541.03 7191.47 1548.23C7212.19 1555.29 7230.63 1565.35 7246.79 1578.42C7263.09 1591.35 7276.68 1606.85 7287.56 1624.92C7298.43 1642.85 7305.92 1662.75 7310.03 1684.64H7253.62ZM7399.23 1994.93V1656.44H7449.47V1707.56H7453C7459.17 1690.81 7470.34 1677.22 7486.5 1666.79C7502.66 1656.36 7520.87 1651.15 7541.15 1651.15C7544.97 1651.15 7549.74 1651.22 7555.47 1651.37C7561.2 1651.51 7565.54 1651.73 7568.47 1652.03V1704.92C7566.71 1704.48 7562.67 1703.82 7556.35 1702.93C7550.18 1701.91 7543.65 1701.39 7536.74 1701.39C7520.29 1701.39 7505.59 1704.84 7492.67 1711.75C7479.88 1718.51 7469.75 1727.91 7462.25 1739.96C7454.91 1751.86 7451.24 1765.45 7451.24 1780.73V1994.93H7399.23ZM7757.33 2001.98C7726.77 2001.98 7699.96 1994.71 7676.9 1980.16C7653.98 1965.62 7636.05 1945.27 7623.13 1919.12C7610.34 1892.97 7603.95 1862.41 7603.95 1827.44C7603.95 1792.18 7610.34 1761.41 7623.13 1735.11C7636.05 1708.81 7653.98 1688.39 7676.9 1673.85C7699.96 1659.3 7726.77 1652.03 7757.33 1652.03C7787.89 1652.03 7814.63 1659.3 7837.55 1673.85C7860.61 1688.39 7878.54 1708.81 7891.32 1735.11C7904.25 1761.41 7910.71 1792.18 7910.71 1827.44C7910.71 1862.41 7904.25 1892.97 7891.32 1919.12C7878.54 1945.27 7860.61 1965.62 7837.55 1980.16C7814.63 1994.71 7787.89 2001.98 7757.33 2001.98ZM7757.33 1955.26C7780.54 1955.26 7799.64 1949.31 7814.63 1937.41C7829.61 1925.51 7840.71 1909.86 7847.9 1890.47C7855.1 1871.08 7858.7 1850.07 7858.7 1827.44C7858.7 1804.82 7855.1 1783.74 7847.9 1764.2C7840.71 1744.66 7829.61 1728.86 7814.63 1716.82C7799.64 1704.77 7780.54 1698.75 7757.33 1698.75C7734.12 1698.75 7715.02 1704.77 7700.03 1716.82C7685.05 1728.86 7673.96 1744.66 7666.76 1764.2C7659.56 1783.74 7655.96 1804.82 7655.96 1827.44C7655.96 1850.07 7659.56 1871.08 7666.76 1890.47C7673.96 1909.86 7685.05 1925.51 7700.03 1937.41C7715.02 1949.31 7734.12 1955.26 7757.33 1955.26ZM8055.27 1994.93L7952.14 1656.44H8006.79L8079.95 1915.59H8083.48L8155.76 1656.44H8211.3L8282.7 1914.71H8286.22L8359.39 1656.44H8414.04L8310.9 1994.93H8259.78L8185.73 1734.89H8180.44L8106.4 1994.93H8055.27ZM8474.64 1998.45C8463.77 1998.45 8454.44 1994.56 8446.65 1986.77C8438.87 1978.99 8434.97 1969.66 8434.97 1958.78C8434.97 1947.91 8438.87 1938.58 8446.65 1930.8C8454.44 1923.01 8463.77 1919.12 8474.64 1919.12C8485.51 1919.12 8494.84 1923.01 8502.63 1930.8C8510.41 1938.58 8514.31 1947.91 8514.31 1958.78C8514.31 1965.98 8512.47 1972.59 8508.8 1978.62C8505.27 1984.64 8500.5 1989.49 8494.47 1993.16C8488.6 1996.69 8481.99 1998.45 8474.64 1998.45Z" fill="#666B77"/>
</svg>
