<svg width="83" height="83" viewBox="0 0 83 83" fill="none" xmlns="http://www.w3.org/2000/svg">
<rect width="83" height="83" rx="22.865" fill="#155DFC"/>
<path d="M71.3883 45.8837C69.7192 51.1686 66.6618 55.9629 62.4723 59.7321C59.8364 62.0962 56.8255 64.0048 53.5631 65.3804C53.0772 65.5803 52.4523 65.8423 51.9549 65.9866C51.9944 69.2636 51.9054 72.6022 51.9609 75.8658C50.1276 75.0341 48.3012 74.1875 46.4816 73.3261L36.6445 68.7605L30.4493 65.8804C29.0978 65.2524 27.6172 64.6084 26.3232 63.883C19.7876 60.2633 14.757 54.4314 12.135 47.4354C11.9439 46.9305 11.7668 46.4206 11.6037 45.9064C10.9466 43.834 12.6256 41.8748 14.7998 41.8729C15.8171 41.872 16.8357 41.8682 17.8519 41.8645L17.9638 41.864C19.521 41.8583 20.8594 42.9007 21.4196 44.3537C22.0671 46.0332 22.8656 47.5057 24.0722 49.1826C27.6545 53.9303 32.5964 56.989 38.514 57.823C44.1711 58.609 49.909 57.1189 54.4686 53.6793C57.6603 51.283 60.0941 48.0688 61.5437 44.4208C62.1312 42.9422 63.4931 41.853 65.0841 41.853H68.2208C70.388 41.853 72.041 43.8171 71.3883 45.8837Z" fill="white"/>
<path d="M21.4554 30.4958C22.1748 28.6896 23.1418 26.9737 24.3427 25.4006C27.784 20.8758 32.874 17.8943 38.5037 17.1058C44.1948 16.3021 49.9709 17.805 54.5487 21.2806C57.6622 23.6524 60.1861 26.9359 61.6171 30.6073C62.1634 32.0091 63.3945 33.0657 64.8989 33.0527C65.3912 33.0484 65.8625 33.042 66.2558 33.0418C66.8772 33.0415 67.4807 32.9986 68.0771 32.9384C70.2133 32.7228 71.8255 30.6285 71.1833 28.5798C69.1383 22.0559 65.0407 16.5995 59.24 12.6183C54.6622 9.40907 48.6137 7.38647 43.0593 7.17317C42.3825 7.14718 40.9252 7.10524 40.2636 7.16226C31.6623 7.58285 24.0279 11.0886 18.2102 17.4941C15.183 20.8594 12.9504 24.8033 11.6138 29.0375C10.9603 31.1078 12.6194 33.0737 14.7904 33.0676L17.9277 33.0588C19.5131 33.0544 20.8688 31.9688 21.4554 30.4958Z" fill="white"/>
<path d="M30.9145 33.2747C33.8158 32.4156 36.7412 33.5385 37.451 35.7838C38.1609 38.0291 36.3867 40.5479 33.4868 41.4113C30.5829 42.2762 27.6507 41.1537 26.9399 38.9053C26.229 36.6568 28.0092 34.1351 30.9145 33.2747Z" fill="white"/>
<path d="M51.5873 33.1521C54.5365 33.8071 56.5691 36.2089 56.1314 38.5216C55.6936 40.8343 52.9508 42.1858 49.9992 41.5426C47.037 40.8975 44.9881 38.4884 45.4273 36.1671C45.8666 33.8458 48.6272 32.4947 51.5873 33.1521Z" fill="white"/>
</svg>
