<svg width="435" height="112" viewBox="0 0 435 112" fill="none" xmlns="http://www.w3.org/2000/svg">
<rect x="15.8862" y="12.0117" width="87.9073" height="87.9073" rx="24.2169" fill="#155DFC"/>
<path d="M91.4954 60.6088C89.7276 66.2062 86.4894 71.284 82.0523 75.276C79.2605 77.7799 76.0716 79.8014 72.6163 81.2582C72.1017 81.47 71.4398 81.7475 70.913 81.9003C70.9548 85.371 70.8606 88.907 70.9193 92.3636C68.9777 91.4827 67.0433 90.5861 65.1161 89.6738L54.6974 84.8382L48.136 81.7878C46.7045 81.1227 45.1364 80.4407 43.7658 79.6723C36.8438 75.8386 31.5158 69.662 28.7388 62.2523C28.5364 61.7175 28.3488 61.1775 28.1761 60.6329C27.4802 58.4379 29.2584 56.3629 31.5611 56.3608C32.6386 56.3599 33.7174 56.3559 34.7936 56.352L34.9122 56.3515C36.5615 56.3454 37.979 57.4494 38.5723 58.9884C39.2581 60.7672 40.1039 62.3268 41.3817 64.1028C45.1759 69.1312 50.41 72.3707 56.6775 73.254C62.669 74.0865 68.7462 72.5083 73.5754 68.8654C76.9557 66.3274 79.5334 62.9231 81.0687 59.0594C81.691 57.4934 83.1334 56.3398 84.8185 56.3398H88.1406C90.4359 56.3398 92.1866 58.4201 91.4954 60.6088Z" fill="white"/>
<path d="M38.6102 44.3107C39.3721 42.3976 40.3963 40.5803 41.6683 38.9142C45.313 34.1219 50.7039 30.9641 56.6665 30.1289C62.694 29.2777 68.8117 30.8696 73.6601 34.5506C76.9577 37.0627 79.6309 40.5403 81.1464 44.4288C81.7251 45.9134 83.0289 47.0325 84.6223 47.0187C85.1436 47.0142 85.6429 47.0074 86.0594 47.0072C86.7176 47.0068 87.3567 46.9614 87.9884 46.8977C90.2509 46.6693 91.9584 44.4512 91.2782 42.2814C89.1124 35.3718 84.7724 29.5928 78.6288 25.3762C73.7803 21.9772 67.3742 19.835 61.4914 19.6091C60.7746 19.5816 59.2312 19.5372 58.5305 19.5975C49.4206 20.043 41.3348 23.756 35.1731 30.5403C31.967 34.1045 29.6023 38.2816 28.1867 42.7662C27.4945 44.9588 29.2518 47.0409 31.5511 47.0345L34.8739 47.0252C36.5531 47.0205 37.9889 45.8707 38.6102 44.3107Z" fill="white"/>
<path d="M48.6285 47.2538C51.7013 46.3439 54.7997 47.5332 55.5515 49.9113C56.3033 52.2893 54.4243 54.957 51.3529 55.8715C48.2773 56.7875 45.1717 55.5987 44.4189 53.2173C43.666 50.8359 45.5514 48.165 48.6285 47.2538Z" fill="white"/>
<path d="M70.5237 47.1243C73.6472 47.8181 75.8 50.3618 75.3364 52.8113C74.8728 55.2608 71.9678 56.6921 68.8417 56.0109C65.7044 55.3276 63.5343 52.7761 63.9995 50.3176C64.4648 47.8591 67.3886 46.4281 70.5237 47.1243Z" fill="white"/>
<path d="M129.814 15.0849H138.48V57.8296H156.903V64.3833H129.814V15.0849ZM171.732 64.6746C169.159 64.6746 167.193 63.9221 165.833 62.4172C164.474 60.8637 163.794 58.8733 163.794 56.446V28.1195H172.096V55.7179C172.096 56.8344 172.266 57.5869 172.606 57.9752C172.945 58.3636 173.455 58.5578 174.135 58.5578C174.329 58.5578 174.523 58.5578 174.717 58.5578C174.96 58.5578 175.178 58.5335 175.373 58.485C175.567 58.485 175.785 58.4607 176.028 58.4122L176.902 63.6551C176.562 63.8493 176.125 64.0192 175.591 64.1648C175.154 64.3105 174.596 64.4318 173.916 64.5289C173.285 64.626 172.557 64.6746 171.732 64.6746ZM168.091 11.9537C169.644 11.9537 170.834 12.4149 171.659 13.3373C172.484 14.2597 172.897 15.449 172.897 16.9054C172.897 18.3618 172.46 19.5754 171.586 20.5464C170.761 21.5173 169.523 22.0027 167.872 22.0027C166.319 22.0027 165.105 21.5415 164.231 20.6192C163.406 19.6483 162.993 18.4832 162.993 17.1239C162.993 15.6189 163.406 14.381 164.231 13.4101C165.105 12.4392 166.392 11.9537 168.091 11.9537ZM207.713 64.3833V40.8628C207.713 38.8239 207.349 37.1976 206.62 35.984C205.892 34.7218 204.654 34.0907 202.907 34.0907C201.79 34.0907 200.698 34.3819 199.63 34.9645C198.61 35.4985 197.688 36.2995 196.863 37.3675C196.037 38.4355 195.358 39.7463 194.824 41.2997C194.338 42.8047 194.096 44.5038 194.096 46.397V64.3833H185.794V46.033C185.794 43.1202 185.6 40.6929 185.212 38.7511C184.823 36.7607 184.411 35.1587 183.974 33.945C183.44 32.5372 182.857 31.3964 182.226 30.5225L188.78 27.9011C189.265 28.4351 189.751 29.0904 190.236 29.8672C190.625 30.5468 191.013 31.3964 191.401 32.4158C191.79 33.3867 192.105 34.5033 192.348 35.7655C193.61 32.8527 195.431 30.7653 197.809 29.5031C200.188 28.1923 202.688 27.537 205.31 27.537C209.048 27.537 211.742 28.6778 213.393 30.9595C215.092 33.1926 215.941 36.2267 215.941 40.0618V64.3833H207.713ZM241.944 27.2457C247.526 27.2457 251.58 28.8962 254.104 32.1974C256.629 35.4985 257.891 40.0375 257.891 45.8145C257.891 48.5331 257.551 51.0817 256.872 53.4605C256.192 55.7907 255.148 57.8296 253.74 59.5773C252.381 61.2764 250.658 62.6356 248.57 63.6551C246.483 64.626 244.055 65.1115 241.288 65.1115C238.521 65.1115 236.118 64.6988 234.079 63.8736C232.089 62.9997 230.438 61.7618 229.128 60.1598C227.817 58.5578 226.846 56.616 226.215 54.3343C225.632 52.0526 225.341 49.4797 225.341 46.6155C225.341 43.8484 225.681 41.2997 226.36 38.9695C227.04 36.5908 228.06 34.5518 229.419 32.8527C230.827 31.1051 232.574 29.7458 234.662 28.7749C236.749 27.7554 239.177 27.2457 241.944 27.2457ZM241.215 33.3625C239.808 33.3625 238.643 33.678 237.72 34.3091C236.846 34.9402 236.142 35.8383 235.608 37.0034C235.123 38.12 234.783 39.455 234.589 41.0085C234.395 42.5134 234.298 44.1397 234.298 45.8873C234.298 47.6835 234.395 49.3826 234.589 50.9846C234.832 52.5866 235.244 53.9945 235.827 55.2081C236.409 56.3732 237.186 57.2956 238.157 57.9752C239.177 58.6549 240.463 58.9947 242.016 58.9947C243.424 58.9947 244.565 58.6792 245.439 58.0481C246.361 57.417 247.065 56.5431 247.551 55.4266C248.085 54.2615 248.449 52.9265 248.643 51.4215C248.837 49.9166 248.934 48.2903 248.934 46.5427C248.934 44.7465 248.813 43.0474 248.57 41.4454C248.376 39.8434 247.988 38.4355 247.405 37.2219C246.823 36.0082 246.022 35.0616 245.002 34.3819C244.031 33.7023 242.769 33.3625 241.215 33.3625ZM295.018 24.9883C293.853 23.7261 292.615 22.7795 291.305 22.1484C290.042 21.4687 288.562 21.1289 286.863 21.1289C284.775 21.1289 283.003 21.6144 281.547 22.5853C280.139 23.5077 278.998 24.8184 278.124 26.5175C277.25 28.1681 276.619 30.1099 276.231 32.343C275.843 34.5761 275.648 36.9791 275.648 39.5521C275.648 42.125 275.818 44.528 276.158 46.7611C276.547 48.9943 277.178 50.9604 278.051 52.6595C278.974 54.3586 280.187 55.6936 281.692 56.6645C283.246 57.6354 285.188 58.1209 287.518 58.1209C288.634 58.1209 289.702 58.0238 290.722 57.8296C291.741 57.6354 292.664 57.4412 293.489 57.2471C294.363 57.0043 295.067 56.7859 295.601 56.5917C296.183 56.3975 296.547 56.2761 296.693 56.2276L298.732 62.3444L297.785 62.7085C297.154 62.9512 296.256 63.2425 295.091 63.5823C293.975 63.8736 292.615 64.1406 291.013 64.3833C289.46 64.6746 287.736 64.8202 285.843 64.8202C279.338 64.8202 274.435 62.757 271.134 58.6306C267.881 54.4557 266.255 48.3632 266.255 40.3531C266.255 36.518 266.692 33.0227 267.566 29.8672C268.439 26.6631 269.75 23.9203 271.498 21.6386C273.294 19.357 275.527 17.5851 278.197 16.3229C280.916 15.0607 284.095 14.4296 287.736 14.4296C290.649 14.4296 293.028 14.9636 294.873 16.0316C296.766 17.0996 298.295 18.3132 299.46 19.6725L295.018 24.9883ZM316.405 32.7799C317.813 30.9352 319.487 29.6002 321.429 28.7749C323.42 27.9496 325.507 27.537 327.692 27.537C331.43 27.537 334.124 28.6778 335.775 30.9595C337.474 33.1926 338.323 36.2267 338.323 40.0618V64.3833H330.022V40.6444C330.022 38.6054 329.658 37.0034 328.93 35.8383C328.201 34.6247 326.963 34.0178 325.216 34.0178C324.196 34.0178 323.153 34.2848 322.085 34.8189C321.065 35.3529 320.118 36.1296 319.245 37.1491C318.419 38.12 317.74 39.2851 317.206 40.6444C316.672 42.0036 316.405 43.5086 316.405 45.1591V64.3833H308.103V13.046L316.405 11.5896V32.7799ZM379.123 46.834C379.123 49.7467 379.293 52.1983 379.633 54.1887C380.021 56.1305 380.434 57.7082 380.871 58.9219C381.405 60.3783 381.987 61.5191 382.619 62.3444L376.138 64.9659C375.507 64.3348 374.924 63.5823 374.39 62.7085C373.953 61.9317 373.54 61.0094 373.152 59.9414C372.764 58.8248 372.521 57.5141 372.424 56.0091C371.599 58.9219 370.264 61.1307 368.419 62.6356C366.623 64.092 364.171 64.8202 361.064 64.8202C358.783 64.8202 356.792 64.4076 355.093 63.5823C353.442 62.7085 352.059 61.4948 350.942 59.9414C349.826 58.3393 349.001 56.4218 348.467 54.1887C347.933 51.9556 347.666 49.4797 347.666 46.7611C347.666 43.994 348.078 41.4454 348.903 39.1152C349.777 36.7364 350.967 34.6975 352.472 32.9984C354.025 31.2993 355.87 29.9643 358.006 28.9933C360.142 28.0224 362.496 27.537 365.069 27.537C366.526 27.537 368.031 27.6583 369.584 27.9011C371.186 28.0952 372.667 28.3137 374.026 28.5564C375.385 28.7992 376.526 29.0419 377.448 29.2846C378.419 29.4788 378.978 29.6002 379.123 29.6487V46.834ZM362.448 58.9947C363.661 58.9947 364.778 58.5821 365.797 57.7568C366.817 56.9315 367.691 55.8635 368.419 54.5528C369.196 53.1935 369.778 51.6643 370.167 49.9652C370.603 48.2175 370.822 46.4456 370.822 44.6494V34.1635C370.336 34.0178 369.608 33.8479 368.637 33.6537C367.666 33.4596 366.793 33.3625 366.016 33.3625C364.171 33.3625 362.642 33.678 361.428 34.3091C360.263 34.9402 359.317 35.814 358.588 36.9306C357.86 38.0472 357.35 39.3822 357.059 40.9356C356.768 42.4891 356.622 44.1882 356.622 46.033C356.622 47.7321 356.671 49.3583 356.768 50.9118C356.865 52.4653 357.108 53.8488 357.496 55.0625C357.933 56.2761 358.54 57.2471 359.317 57.9752C360.093 58.6549 361.137 58.9947 362.448 58.9947ZM387.307 28.1195H393.861L395.317 19.5997L402.162 18.0705V28.1195H411.119L410.1 34.0178H402.162V55.5722C402.162 56.8344 402.502 57.6597 403.182 58.0481C403.861 58.3879 404.614 58.5578 405.439 58.5578C406.119 58.5578 406.798 58.5092 407.478 58.4122C408.158 58.3151 408.765 58.1937 409.299 58.0481C409.93 57.9024 410.537 57.7325 411.119 57.5383L412.503 62.9997L411.847 63.2182C411.41 63.4124 410.755 63.6308 409.881 63.8736C409.056 64.0678 408.061 64.2377 406.896 64.3833C405.779 64.5775 404.541 64.6746 403.182 64.6746C401.823 64.6746 400.56 64.5289 399.395 64.2377C398.279 63.9464 397.308 63.4852 396.482 62.8541C395.657 62.1745 395.002 61.3249 394.516 60.3054C394.079 59.286 393.861 58.0238 393.861 56.5189V34.0178H387.307V28.1195Z" fill="#0F172A"/>
<path d="M129.814 77.0364V74.6882H147.082V77.0364H140.208V96.5474H137.561V77.0364H130.688ZM153.419 96.9316C152.38 96.9316 151.438 96.7359 150.591 96.3446C149.744 95.9461 149.072 95.3733 148.573 94.6261C148.075 93.8719 147.826 92.9611 147.826 91.8938C147.826 90.9545 148.011 90.1931 148.381 89.6096C148.751 89.0191 149.246 88.5565 149.865 88.2221C150.484 87.8877 151.167 87.6386 151.914 87.475C152.669 87.3042 153.426 87.169 154.188 87.0694C155.184 86.9413 155.992 86.8452 156.611 86.7812C157.237 86.71 157.692 86.5926 157.977 86.429C158.268 86.2653 158.414 85.9807 158.414 85.5751V85.4897C158.414 84.4366 158.126 83.6183 157.55 83.0348C156.981 82.4513 156.116 82.1596 154.956 82.1596C153.754 82.1596 152.811 82.4229 152.128 82.9494C151.445 83.476 150.964 84.0381 150.687 84.6358L148.296 83.782C148.723 82.7858 149.292 82.0102 150.004 81.4552C150.722 80.893 151.505 80.5017 152.352 80.2811C153.206 80.0534 154.045 79.9395 154.871 79.9395C155.397 79.9395 156.002 80.0036 156.685 80.1317C157.375 80.2526 158.041 80.5052 158.681 80.8895C159.329 81.2737 159.866 81.8536 160.293 82.6292C160.72 83.4048 160.933 84.4437 160.933 85.7459V96.5474H158.414V94.3273H158.286C158.116 94.6831 157.831 95.0638 157.432 95.4693C157.034 95.8749 156.504 96.22 155.842 96.5047C155.18 96.7893 154.373 96.9316 153.419 96.9316ZM153.803 94.6688C154.8 94.6688 155.639 94.4732 156.322 94.0818C157.013 93.6904 157.532 93.1852 157.881 92.5662C158.236 91.9471 158.414 91.296 158.414 90.6129V88.3075C158.308 88.4356 158.073 88.553 157.71 88.6597C157.354 88.7593 156.941 88.8483 156.472 88.9265C156.009 88.9977 155.557 89.0617 155.116 89.1187C154.682 89.1685 154.33 89.2112 154.06 89.2468C153.405 89.3321 152.793 89.4709 152.224 89.663C151.662 89.848 151.206 90.1291 150.858 90.5062C150.516 90.8762 150.345 91.3814 150.345 92.0218C150.345 92.8971 150.669 93.5588 151.317 94.0071C151.971 94.4483 152.8 94.6688 153.803 94.6688ZM168.05 74.6882V96.5474H165.531V74.6882H168.05ZM175.012 90.5703L174.969 87.4536H175.481L182.654 80.153H185.77L178.128 87.8806H177.915L175.012 90.5703ZM172.663 96.5474V74.6882H175.182V96.5474H172.663ZM183.081 96.5474L176.677 88.4356L178.47 86.6851L186.283 96.5474H183.081ZM190.848 96.7181C190.322 96.7181 189.87 96.5296 189.493 96.1524C189.116 95.7753 188.927 95.3235 188.927 94.7969C188.927 94.2704 189.116 93.8185 189.493 93.4414C189.87 93.0643 190.322 92.8757 190.848 92.8757C191.375 92.8757 191.827 93.0643 192.204 93.4414C192.581 93.8185 192.769 94.2704 192.769 94.7969C192.769 95.1456 192.68 95.4658 192.503 95.7575C192.332 96.0493 192.101 96.2841 191.809 96.462C191.524 96.6328 191.204 96.7181 190.848 96.7181ZM223.674 81.5192H221.027C220.871 80.7578 220.597 80.089 220.205 79.5126C219.821 78.9362 219.352 78.4524 218.797 78.061C218.249 77.6625 217.64 77.3637 216.971 77.1645C216.302 76.9652 215.605 76.8656 214.879 76.8656C213.556 76.8656 212.357 77.2 211.282 77.8689C210.215 78.5378 209.365 79.5233 208.731 80.8254C208.105 82.1276 207.792 83.725 207.792 85.6178C207.792 87.5105 208.105 89.108 208.731 90.4102C209.365 91.7123 210.215 92.6978 211.282 93.3667C212.357 94.0356 213.556 94.37 214.879 94.37C215.605 94.37 216.302 94.2704 216.971 94.0711C217.64 93.8719 218.249 93.5766 218.797 93.1852C219.352 92.7868 219.821 92.2993 220.205 91.723C220.597 91.1395 220.871 90.4706 221.027 89.7164H223.674C223.475 90.8335 223.112 91.8333 222.586 92.7156C222.059 93.5979 221.404 94.3486 220.622 94.9677C219.839 95.5796 218.96 96.0457 217.985 96.3659C217.018 96.6861 215.982 96.8462 214.879 96.8462C213.015 96.8462 211.357 96.3908 209.906 95.48C208.454 94.5692 207.312 93.2742 206.479 91.5949C205.647 89.9156 205.231 87.9232 205.231 85.6178C205.231 83.3123 205.647 81.32 206.479 79.6407C207.312 77.9614 208.454 76.6664 209.906 75.7556C211.357 74.8448 213.015 74.3894 214.879 74.3894C215.982 74.3894 217.018 74.5495 217.985 74.8697C218.96 75.1899 219.839 75.6595 220.622 76.2786C221.404 76.8905 222.059 77.6376 222.586 78.52C223.112 79.3952 223.475 80.3949 223.674 81.5192ZM234.27 96.8889C232.79 96.8889 231.492 96.5367 230.374 95.8322C229.264 95.1278 228.396 94.1423 227.77 92.8757C227.151 91.6091 226.842 90.1291 226.842 88.4356C226.842 86.7278 227.151 85.2371 227.77 83.9634C228.396 82.6897 229.264 81.7007 230.374 80.9962C231.492 80.2918 232.79 79.9395 234.27 79.9395C235.75 79.9395 237.045 80.2918 238.155 80.9962C239.273 81.7007 240.141 82.6897 240.76 83.9634C241.386 85.2371 241.699 86.7278 241.699 88.4356C241.699 90.1291 241.386 91.6091 240.76 92.8757C240.141 94.1423 239.273 95.1278 238.155 95.8322C237.045 96.5367 235.75 96.8889 234.27 96.8889ZM234.27 94.6261C235.395 94.6261 236.32 94.338 237.045 93.7616C237.771 93.1852 238.308 92.4274 238.657 91.4882C239.006 90.5489 239.18 89.5314 239.18 88.4356C239.18 87.3398 239.006 86.3187 238.657 85.3723C238.308 84.4259 237.771 83.661 237.045 83.0775C236.32 82.494 235.395 82.2023 234.27 82.2023C233.146 82.2023 232.221 82.494 231.495 83.0775C230.769 83.661 230.232 84.4259 229.884 85.3723C229.535 86.3187 229.361 87.3398 229.361 88.4356C229.361 89.5314 229.535 90.5489 229.884 91.4882C230.232 92.4274 230.769 93.1852 231.495 93.7616C232.221 94.338 233.146 94.6261 234.27 94.6261ZM248.063 86.6851V96.5474H245.544V80.153H247.978V82.7146H248.191C248.575 81.8821 249.159 81.2132 249.942 80.708C250.724 80.1957 251.735 79.9395 252.973 79.9395C254.083 79.9395 255.054 80.1672 255.887 80.6226C256.719 81.0709 257.367 81.754 257.829 82.6719C258.292 83.5827 258.523 84.7355 258.523 86.1301V96.5474H256.004V86.3009C256.004 85.013 255.67 84.0097 255.001 83.291C254.332 82.5652 253.414 82.2023 252.247 82.2023C251.443 82.2023 250.724 82.3766 250.091 82.7253C249.465 83.074 248.97 83.5827 248.607 84.2516C248.244 84.9205 248.063 85.7316 248.063 86.6851ZM275.945 80.153L269.882 96.5474H267.32L261.258 80.153H263.99L268.516 93.2173H268.687L273.212 80.153H275.945ZM285.556 96.8889C283.976 96.8889 282.614 96.5402 281.468 95.8429C280.33 95.1385 279.451 94.1565 278.832 92.8971C278.22 91.6305 277.914 90.1575 277.914 88.4783C277.914 86.799 278.22 85.3189 278.832 84.0381C279.451 82.7502 280.312 81.7469 281.415 81.0282C282.525 80.3024 283.82 79.9395 285.3 79.9395C286.154 79.9395 286.997 80.0819 287.829 80.3665C288.662 80.6511 289.42 81.1136 290.103 81.754C290.786 82.3873 291.33 83.2269 291.736 84.2729C292.142 85.3189 292.344 86.6069 292.344 88.1367V89.2041H279.707V87.0267H289.783C289.783 86.1017 289.598 85.2762 289.228 84.5505C288.865 83.8247 288.345 83.2519 287.669 82.832C287 82.4122 286.211 82.2023 285.3 82.2023C284.297 82.2023 283.428 82.4513 282.696 82.9494C281.97 83.4404 281.411 84.0808 281.02 84.8707C280.628 85.6605 280.433 86.5072 280.433 87.4109V88.8625C280.433 90.1006 280.646 91.1502 281.073 92.0112C281.507 92.865 282.108 93.5161 282.877 93.9644C283.645 94.4056 284.538 94.6261 285.556 94.6261C286.218 94.6261 286.815 94.5336 287.349 94.3486C287.89 94.1565 288.356 93.8719 288.747 93.4948C289.139 93.1105 289.441 92.6338 289.655 92.0645L292.088 92.7476C291.832 93.573 291.401 94.2988 290.797 94.925C290.192 95.5441 289.445 96.0279 288.555 96.3766C287.666 96.7181 286.666 96.8889 285.556 96.8889ZM296.176 96.5474V80.153H298.61V82.6292H298.78C299.079 81.8181 299.62 81.1599 300.403 80.6547C301.185 80.1494 302.068 79.8968 303.05 79.8968C303.235 79.8968 303.466 79.9004 303.744 79.9075C304.021 79.9146 304.231 79.9253 304.373 79.9395V82.5012C304.288 82.4798 304.092 82.4478 303.786 82.4051C303.487 82.3553 303.171 82.3304 302.836 82.3304C302.039 82.3304 301.328 82.4976 300.702 82.832C300.083 83.1593 299.592 83.6147 299.229 84.1982C298.873 84.7746 298.695 85.4328 298.695 86.1728V96.5474H296.176ZM315.516 80.153V82.2877H307.02V80.153H315.516ZM309.496 76.2252H312.015V91.8511C312.015 92.5626 312.119 93.0963 312.325 93.4521C312.538 93.8007 312.809 94.0356 313.136 94.1565C313.471 94.2704 313.823 94.3273 314.193 94.3273C314.47 94.3273 314.698 94.3131 314.876 94.2846C315.054 94.249 315.196 94.2206 315.303 94.1992L315.815 96.462C315.644 96.526 315.406 96.5901 315.1 96.6541C314.794 96.7253 314.406 96.7608 313.937 96.7608C313.225 96.7608 312.528 96.6078 311.845 96.3019C311.169 95.9959 310.607 95.5298 310.158 94.9037C309.717 94.2775 309.496 93.4877 309.496 92.5342V76.2252ZM321.141 96.7181C320.615 96.7181 320.163 96.5296 319.786 96.1524C319.409 95.7753 319.22 95.3235 319.22 94.7969C319.22 94.2704 319.409 93.8185 319.786 93.4414C320.163 93.0643 320.615 92.8757 321.141 92.8757C321.668 92.8757 322.12 93.0643 322.497 93.4414C322.874 93.8185 323.062 94.2704 323.062 94.7969C323.062 95.1456 322.973 95.4658 322.796 95.7575C322.625 96.0493 322.394 96.2841 322.102 96.462C321.817 96.6328 321.497 96.7181 321.141 96.7181ZM351.32 81.5192C351.085 80.8005 350.776 80.1566 350.392 79.5873C350.015 79.011 349.563 78.52 349.036 78.1144C348.517 77.7088 347.926 77.3993 347.264 77.1858C346.603 76.9723 345.877 76.8656 345.087 76.8656C343.792 76.8656 342.614 77.2 341.554 77.8689C340.494 78.5378 339.651 79.5233 339.024 80.8254C338.398 82.1276 338.085 83.725 338.085 85.6178C338.085 87.5105 338.402 89.108 339.035 90.4102C339.668 91.7123 340.526 92.6978 341.607 93.3667C342.689 94.0356 343.906 94.37 345.258 94.37C346.51 94.37 347.613 94.1032 348.566 93.5695C349.527 93.0287 350.274 92.2673 350.808 91.2854C351.349 90.2963 351.619 89.1329 351.619 87.7952L352.43 87.9659H345.855V85.6178H354.181V87.9659C354.181 89.7662 353.796 91.3316 353.028 92.6622C352.267 93.9929 351.213 95.0246 349.869 95.7575C348.531 96.4833 346.994 96.8462 345.258 96.8462C343.322 96.8462 341.622 96.3908 340.156 95.48C338.697 94.5692 337.559 93.2742 336.74 91.5949C335.929 89.9156 335.524 87.9232 335.524 85.6178C335.524 83.8887 335.755 82.3339 336.217 80.9535C336.687 79.566 337.349 78.3848 338.203 77.4099C339.056 76.4351 340.067 75.688 341.234 75.1685C342.401 74.6491 343.685 74.3894 345.087 74.3894C346.24 74.3894 347.314 74.5637 348.31 74.9124C349.314 75.2539 350.207 75.7413 350.989 76.3746C351.779 77.0008 352.437 77.7515 352.964 78.6267C353.49 79.4948 353.853 80.459 354.053 81.5192H351.32ZM358.373 96.5474V80.153H360.806V82.6292H360.977C361.276 81.8181 361.817 81.1599 362.599 80.6547C363.382 80.1494 364.264 79.8968 365.246 79.8968C365.431 79.8968 365.663 79.9004 365.94 79.9075C366.218 79.9146 366.428 79.9253 366.57 79.9395V82.5012C366.484 82.4798 366.289 82.4478 365.983 82.4051C365.684 82.3553 365.367 82.3304 365.033 82.3304C364.236 82.3304 363.524 82.4976 362.898 82.832C362.279 83.1593 361.788 83.6147 361.425 84.1982C361.07 84.7746 360.892 85.4328 360.892 86.1728V96.5474H358.373ZM375.717 96.8889C374.237 96.8889 372.938 96.5367 371.821 95.8322C370.711 95.1278 369.843 94.1423 369.217 92.8757C368.598 91.6091 368.288 90.1291 368.288 88.4356C368.288 86.7278 368.598 85.2371 369.217 83.9634C369.843 82.6897 370.711 81.7007 371.821 80.9962C372.938 80.2918 374.237 79.9395 375.717 79.9395C377.197 79.9395 378.492 80.2918 379.602 80.9962C380.719 81.7007 381.587 82.6897 382.206 83.9634C382.833 85.2371 383.146 86.7278 383.146 88.4356C383.146 90.1291 382.833 91.6091 382.206 92.8757C381.587 94.1423 380.719 95.1278 379.602 95.8322C378.492 96.5367 377.197 96.8889 375.717 96.8889ZM375.717 94.6261C376.841 94.6261 377.766 94.338 378.492 93.7616C379.218 93.1852 379.755 92.4274 380.104 91.4882C380.452 90.5489 380.627 89.5314 380.627 88.4356C380.627 87.3398 380.452 86.3187 380.104 85.3723C379.755 84.4259 379.218 83.661 378.492 83.0775C377.766 82.494 376.841 82.2023 375.717 82.2023C374.593 82.2023 373.668 82.494 372.942 83.0775C372.216 83.661 371.679 84.4259 371.33 85.3723C370.982 86.3187 370.807 87.3398 370.807 88.4356C370.807 89.5314 370.982 90.5489 371.33 91.4882C371.679 92.4274 372.216 93.1852 372.942 93.7616C373.668 94.338 374.593 94.6261 375.717 94.6261ZM390.147 96.5474L385.152 80.153H387.799L391.343 92.7049H391.514L395.015 80.153H397.704L401.162 92.6622H401.333L404.877 80.153H407.524L402.529 96.5474H400.052L396.466 83.9527H396.21L392.624 96.5474H390.147ZM410.459 96.7181C409.932 96.7181 409.481 96.5296 409.103 96.1524C408.726 95.7753 408.538 95.3235 408.538 94.7969C408.538 94.2704 408.726 93.8185 409.103 93.4414C409.481 93.0643 409.932 92.8757 410.459 92.8757C410.985 92.8757 411.437 93.0643 411.814 93.4414C412.192 93.8185 412.38 94.2704 412.38 94.7969C412.38 95.1456 412.291 95.4658 412.113 95.7575C411.943 96.0493 411.711 96.2841 411.42 96.462C411.135 96.6328 410.815 96.7181 410.459 96.7181Z" fill="#666B77"/>
</svg>
